<svg id="Capa_1" data-name="Capa 1" xmlns="http://www.w3.org/2000/svg" viewBox="0 0 2835.2 539.4"><defs><style>.cls-1{stroke:#0b1325;stroke-miterlimit:10;}.cls-2{fill:#67b884;}</style></defs><title>logotipo_vectorizado</title><path class="cls-1" d="M-923,383.5c2.1-1.2,2.7-2.7,3.5-3.9a145.1,145.1,0,0,1,30.7-31.5,132.2,132.2,0,0,1,53.9-23.8c17.3-3.5,34.6-3.7,52.1-2a176.7,176.7,0,0,1,51.5,12.6,135.3,135.3,0,0,1,41.8,26.7,110.3,110.3,0,0,1,23.3,31.5c.6,1.1.9,2.4,1.9,3.3,1.5-1.1,2-2.8,2.9-4.3,11.2-18.9,25.5-34.8,43.7-47.1a136.6,136.6,0,0,1,55.3-21.7c15.3-2.5,30.6-2.5,45.9-1A176.1,176.1,0,0,1-465,334.9c19.3,8.1,36.4,19.4,50.1,35.4a110.1,110.1,0,0,1,25.7,56.4,149.8,149.8,0,0,1,1.6,22.5q0,70.6,0,141.1c0,13.6.2,27.2,1.2,40.8.6,8.9,1.5,17.8,3.7,26.6a44.9,44.9,0,0,0,3.5,9.4,19.5,19.5,0,0,0,13.1,10.4,55.1,55.1,0,0,0,7.6,1.2c7.5.8,15,.9,22.5,1.2,1.3,0,2.6-.1,3.7.6a1.1,1.1,0,0,1,.4,1.3c-.1.4-.2.6-.6.6l-4.3.2H-514.4c-.6,0-.8-.6-.7-1s.2-1,.8-1.1l4.3-.4,21.6-1.2a43.8,43.8,0,0,0,7.6-1.2,19.5,19.5,0,0,0,13.1-10.3,45.3,45.3,0,0,0,3.5-9.4,103.1,103.1,0,0,0,2.8-16.1c1.2-11.5,1.8-23,2-34.5s.2-20.2.2-30.2q0-64.6,0-129.1a218.6,218.6,0,0,0-2.1-33c-2.1-14.2-5.8-27.9-12.5-40.6-12.8-24.2-32.8-38.4-59.8-42.2-30.2-4.2-58.5,1.4-84.3,18.3a114.2,114.2,0,0,0-16.1,12.9A146.3,146.3,0,0,0-661.2,399a6.4,6.4,0,0,0-.5,5.9,114.1,114.1,0,0,1,5.3,18.9,122.7,122.7,0,0,1,2.2,24.3c0,39.2,0,78.4,0,117.6,0,18.1.2,36.2.8,54.2a232.1,232.1,0,0,0,2.8,30.6,68.7,68.7,0,0,0,3.5,13.4c3,7.8,8.4,12.6,16.8,14a151.1,151.1,0,0,0,17.2,1.5l12.5.5a2.6,2.6,0,0,1,2.2.7,1.3,1.3,0,0,1,.2.9,1,1,0,0,1-.5.7l-1.4.2H-780.5c-.4,0-.9-.2-1-.8a1.3,1.3,0,0,1,.9-1.4,14,14,0,0,1,2.9-.3c4-.2,8-.2,12-.4a135.9,135.9,0,0,0,16.7-1.6c7.7-1.5,12.9-5.8,16-13s3.9-13.2,4.8-20c2.2-17.5,2.5-35.1,2.6-52.7q.3-74.4.1-148.8c0-16.5-1.8-32.9-6.5-48.8a104.7,104.7,0,0,0-11.5-26.3c-11.8-18.9-28.7-30.5-50.4-35.3a102.2,102.2,0,0,0-19-2.2c-17.5-.5-34.5,1.8-50.8,8.3-19.3,7.7-35.2,20.1-48,36.3-2.8,3.5-5.2,7.3-7.9,10.9a6.7,6.7,0,0,0-1.5,4.9,12.7,12.7,0,0,1,0,1.4q0,98.2,0,196.3c0,13.1.4,26.2,1.1,39.3.5,9.6,1.4,19.1,3.6,28.5a49.2,49.2,0,0,0,3.1,9.1,20.2,20.2,0,0,0,15.2,12c5.5,1.1,11.1,1.3,16.7,1.6s8.3.3,12.5.5l2.8.4c.6.1.7.6.8,1.1a.8.8,0,0,1-.7,1h-180c-1.8,0-2.8-.5-2.6-1.2s1.7-1.2,2.8-1.3l12.5-.5a141.7,141.7,0,0,0,17.2-1.6c8-1.4,13.2-6,16.3-13.4a61.4,61.4,0,0,0,3.8-13.9c1.1-6.6,1.7-13.3,2.2-20,1.2-18.2,1.2-36.5,1.3-54.7q.1-76.8-.1-153.6c0-8-.1-16-.4-24a278.5,278.5,0,0,0-2.8-34.4,72.2,72.2,0,0,0-3.8-14.8c-3.2-8.4-9.4-13-18.3-14.2s-17.2-1-25.8-1.7l-3.8-.2a.9.9,0,0,1-.9-.9,1.2,1.2,0,0,1,1.1-1.3h121.4c3.1.1,3.2.1,3.2,3.3q0,21.8,0,43.7C-923,379.3-923,381-923,383.5Z" transform="translate(1049.3 -153.9)"/><path class="cls-1" d="M927,392q0,98.1,0,196.3c0,15.8.4,31.7,1.7,47.5a123.4,123.4,0,0,0,3.7,23.2,43.2,43.2,0,0,0,3.1,8,19.4,19.4,0,0,0,13.1,10.4,56.4,56.4,0,0,0,7.6,1.2c7.5.8,15,.9,22.5,1.2,1.3.1,2.6-.2,3.7.6a1.2,1.2,0,0,1,.5,1.2c0,.4-.2.6-.6.7l-4.3.2H800.5a.9.9,0,0,1-1-.8,1.3,1.3,0,0,1,1-1.4,15.3,15.3,0,0,1,2.9-.3c4-.2,8-.2,12-.4a134.8,134.8,0,0,0,16.7-1.6c7.7-1.5,12.9-5.9,15.9-13a63.7,63.7,0,0,0,3.8-13.8,225,225,0,0,0,2.8-29.6c.7-18.1.9-36.1.9-54.2q-.1-155,0-310c0-14.6-.4-29.1-1-43.7-.5-10.9-1.2-21.7-3.7-32.4-.5-2.3-1.2-4.6-2-6.9-3.2-9.7-10.1-14.9-20.2-15.8-4.8-.5-9.6-.7-14.4-1l-12.9-.7a2,2,0,0,1-1.7-.7c-.1-.1-.2-.3-.2-.4s.1-.7.3-.8a3.1,3.1,0,0,1,1.3-.4H921.7c6,0,5.3-.8,5.3,5.4q0,116.1,0,232.3Z" transform="translate(1049.3 -153.9)"/><path class="cls-1" d="M1544.1,472.8q0,52.6,0,105.1a352.7,352.7,0,0,0,1.9,39.3c1.3,11.3,3.4,22.4,7.5,33.1a66.6,66.6,0,0,0,7.3,14c7.4,10.6,17.5,16.6,30.4,18a57.7,57.7,0,0,0,25.5-3,44.2,44.2,0,0,0,23.2-19.2,72.4,72.4,0,0,0,8.7-22.2,128,128,0,0,0,3.1-26.6c0-1.4,0-2.9.2-4.3s.8-1.2,1.7-1.2,1.6.2,1.6,1.2c0,2.7.1,5.4-.1,8.2-.6,10.2-1.6,20.4-4.6,30.3l-.4,1.4c-7.2,23.2-22.9,37.1-46.4,42.3a123.5,123.5,0,0,1-37.7,2.3,106.8,106.8,0,0,1-33.8-8.2c-21.3-9.3-36.6-24.8-46.7-45.5a127.9,127.9,0,0,1-10.7-34.7c-1.8-10.8-2.2-21.6-2.2-32.5q0-115,0-229.9c0-7.7,1.1-6.7-6.5-6.7h-49.4l-4.3-.2c-.8-.1-.9-.8-.9-1.5s.2-1.3.9-1.4l4.3-.2h50.4c6,0,5.5.4,5.5-5.4q0-56.6,0-113.3c0-1.3,0-2.6,0-3.8,0-3.6,0-3.7,3.7-3.7h66.2a1.4,1.4,0,0,1,1.5,1.5c0,1.3,0,2.6,0,3.8q0,35.5,0,71,0,22.3,0,44.6c0,1.3,0,2.6.1,3.8a1.3,1.3,0,0,0,1.3,1.2h92.1c1.4,0,2.9,0,4.3.1s1.3.9,1.2,1.7a1.3,1.3,0,0,1-1.1,1.3h-92.2c-6.5,0-5.7-.7-5.7,5.5q0,66.7,0,133.4Z" transform="translate(1049.3 -153.9)"/><path class="cls-1" d="M144.6,692.7c-26.1-.1-50.9-3-74.6-11.4C10.3,660.4-27.7,619-44.6,558.3c-5.9-21.3-7.6-43.1-6.1-65.1s5.4-40.9,13.1-60.2c17.6-44.3,48.8-75.5,92.6-94.1a216.8,216.8,0,0,1,47.8-13.7,288.9,288.9,0,0,1,65.5-3.4c21.8,1.2,43.1,5.1,63.5,13.2a124.3,124.3,0,0,1,34.6,20.2,80.4,80.4,0,0,1,16.7,19c4.7,7.6,7.9,15.7,8.5,24.7,1.2,16.9-5.1,30-19.8,38.6-10.1,5.9-21.3,7.5-32.9,6.4a46.9,46.9,0,0,1-18.2-5.5c-11.1-6.1-18.6-15.1-21.1-27.6a45.6,45.6,0,0,1,1.8-24.1,78,78,0,0,1,7.6-15.4c2.3-3.7,4.5-7.3,6.7-11.1a18.6,18.6,0,0,0,2.6-7.2,17.2,17.2,0,0,0-5.1-14.9,31.1,31.1,0,0,0-9.6-6.3,78.7,78.7,0,0,0-20.8-5.5,210.5,210.5,0,0,0-39.3-1.8c-14.6.6-28.9,3-42.6,8.3a90.2,90.2,0,0,0-43,34.7c-7.4,11.1-12.5,23.3-16.2,36.2a230.5,230.5,0,0,0-7,35.2c-3,23.7-3.4,47.5-3.1,71.4.1,12,.4,24,1.4,36,1.9,21.2,5.1,42.2,12.4,62.4A137.4,137.4,0,0,0,55,629.5c13.8,24.5,34.4,40.4,61.3,48.2a147.7,147.7,0,0,0,35.5,5.5,207,207,0,0,0,58.1-5.4,127.3,127.3,0,0,0,28.6-10.7c22.6-11.8,38.5-29.8,48.9-52.8a165.2,165.2,0,0,0,7.6-20.7c.3-.9.5-1.9.8-2.8s1.1-1.5,2.7-1.1,1.9.9,1.5,2.4c-.9,3.2-1.8,6.5-2.8,9.7A127.6,127.6,0,0,1,285.9,627c-13.2,22.8-32.3,39-56.2,49.7a177.2,177.2,0,0,1-43.1,12.6C172.3,691.7,158,692.4,144.6,692.7Z" transform="translate(1049.3 -153.9)"/><path class="cls-1" d="M-187.2,682.5h-86.4l-4.8-.2c-.4,0-.5-.3-.6-.6s0-1.1.4-1.2a7.4,7.4,0,0,1,2.3-.5l12.5-.5a136.7,136.7,0,0,0,17.2-1.6c7.7-1.4,12.9-5.8,16-13a64.1,64.1,0,0,0,4.2-15.7c1.1-7.4,1.7-14.9,2.2-22.4,1-17.3,1-34.5,1-51.8q0-80.1-.1-160.3c0-11-.5-22.1-1.2-33.1-.6-8.8-1.4-17.5-3.7-26.1a63.2,63.2,0,0,0-2.4-7.3c-3.1-7.6-8.9-11.9-16.9-13.2-3.3-.5-6.7-.8-10-1l-19.2-1h-1c-.7-.1-1.3-.2-1.3-1s.7-1.3,1.6-1.3h72.9a96.1,96.1,0,0,0,39.1-8.4c21.6-9.7,34.6-26.1,38.3-49.7a53.1,53.1,0,0,0,.7-11.5c-.5-8.9-5.6-16.9-16.7-18.6a45.7,45.7,0,0,0-15.7.7,49.4,49.4,0,0,1-29.1-3.2,33.3,33.3,0,0,1-9.3-5.8,28.2,28.2,0,0,1-10-20,40.7,40.7,0,0,1,3.5-19.6c4.5-10,12.2-16.6,22.8-18.7,21.1-4.3,38.9,1.7,52.4,18.8a59.5,59.5,0,0,1,11.3,25.2c4.1,19.6,3.7,39.1-2.3,58.3a73.7,73.7,0,0,1-29,39.4l-1.6,1.1a2.4,2.4,0,0,0-1.3,2.4c0,.8,0,1.6,0,2.4q0,132.9,0,265.8c0,13.8.2,27.5,1.2,41.2.6,9.1,1.4,18.2,3.7,27a45.9,45.9,0,0,0,3.4,9.4,19.6,19.6,0,0,0,13.9,10.8,71.4,71.4,0,0,0,7.6,1.1c7,.8,14,.8,21.1,1.1a38.7,38.7,0,0,1,4.3.5c.6.1.6.6.6,1.1a.9.9,0,0,1-.8.9h-90.7Z" transform="translate(1049.3 -153.9)"/><path class="cls-2" d="M1686.3,335.8h-10.1a32,32,0,0,1-4.3-.5c-.8-.1-1.6-.4-1.5-1.5s.8-1.5,2-1.5h2.9a104.3,104.3,0,0,0,22,0c4-.4,8-.6,11.9-1.2,13.9-2.2,27-6.3,38.7-14.6a60.5,60.5,0,0,0,21.9-28.5,82,82,0,0,0,4.5-20.5,26.3,26.3,0,0,0-1.3-10.9c-2-6.3-6.3-10.2-12.6-12-4.7-1.4-9.5-1.1-14.3-.7-2.1.2-4.1.6-6.1,1-11,2-21.3,0-31-5.3s-14.2-12.6-15.7-22.8c-.8-5.5.3-10.9,1.8-16.1a33.3,33.3,0,0,1,15.1-19.7,32.9,32.9,0,0,1,11.6-4.3,52.5,52.5,0,0,1,24.6,1.4c12.4,3.7,21.7,11.3,28.5,22.2a69.8,69.8,0,0,1,9.2,24.5,110.4,110.4,0,0,1,1.8,26.7c-.7,12.8-2.9,25.4-8.4,37.1-8.5,18.1-22.2,30.6-40.5,38.3-10.7,4.5-21.9,6.8-33.4,8A142.5,142.5,0,0,1,1686.3,335.8Z" transform="translate(1049.3 -153.9)"/><path class="cls-1" d="M560.7,692.7c-28.9-.2-55.1-4.3-80.3-14-54.3-20.9-95.1-65.6-110.3-124.7a186.3,186.3,0,0,1-5.7-57c2.8-49.5,21.1-92.1,57.7-126.2,20.8-19.4,45.3-32.6,72.5-40.6a218.3,218.3,0,0,1,41.8-7.9,246.4,246.4,0,0,1,36.4-.6c33.2,1.8,64.7,9.9,93.4,27,40.9,24.4,67.6,59.8,81,105.3a187.9,187.9,0,0,1,7,65c-2.1,32.7-11.6,63.1-29.5,90.5-21.7,33.2-51.6,56.3-88.8,70.1a208.4,208.4,0,0,1-51.2,11.7C576,692.2,567.4,692.4,560.7,692.7ZM452.9,578.9a223.1,223.1,0,0,0,9.8,40.5A126.2,126.2,0,0,0,480,652.9a85.5,85.5,0,0,0,50.9,33.5,128.8,128.8,0,0,0,51.9,1.1c26.7-4.7,47.1-18.7,61.3-41.9a133.2,133.2,0,0,0,12.3-26.5c7.4-21.5,10.6-43.7,12.5-66.2.8-9.6,1.1-19.2,1.4-28.7.7-28.7-.1-57.2-4.1-85.7a234.7,234.7,0,0,0-8.9-39.7c-4.3-13.1-9.9-25.6-18-36.9-12.4-17.1-28.7-28.5-49.1-33.7a124.6,124.6,0,0,0-59.8-.5c-22.3,5.2-39.9,17.4-52.7,36.4-2,2.9-3.8,5.9-5.5,9a149.9,149.9,0,0,0-13.3,33.8c-5.6,20.4-8.2,41.4-9.5,62.5-.8,12.3-1.3,24.6-1.1,34.4C448.1,530.6,449.2,554.8,452.9,578.9Z" transform="translate(1049.3 -153.9)"/><path class="cls-1" d="M1242.9,482.7H1108c-1.2,0-1.7.7-1.7,1.8s0,.3,0,.5c0,19.8-.1,39.7,1.6,59.5a283.6,283.6,0,0,0,7.1,44.9,156,156,0,0,0,14.3,37.5c14.8,27,37.3,44.1,67.1,51.6,16.9,4.3,34.1,5.3,51.4,4.4a214.6,214.6,0,0,0,30-3.4,143.3,143.3,0,0,0,34.2-10.8c24.6-11.6,42.2-30,53.6-54.6a158.5,158.5,0,0,0,7.6-20.2c.3-.9.6-1.8.8-2.8s.8-2,2.7-1.6,1.9.8,1.6,2.3a113.2,113.2,0,0,1-4.5,14.6c-12.6,33.8-36,57.2-69,71.2a179.6,179.6,0,0,1-41.4,11.6,268.9,268.9,0,0,1-62.7,2.7c-30.2-2.2-59-9.5-85.5-24.4-41.1-23.1-68.4-57.4-82.7-102.2a187.9,187.9,0,0,1-8.8-57.1,239.8,239.8,0,0,1,6.8-59.4c5.2-20.8,13.6-40.2,26-57.8,18.6-26.2,43.3-44.5,73.1-56.2a197.2,197.2,0,0,1,46.3-11.7c18.2-2.4,36.4-2.4,54.6-1a218.8,218.8,0,0,1,48.5,8.9,153.4,153.4,0,0,1,34.9,15.5c26,15.8,43.8,38.3,54.4,66.7a179.6,179.6,0,0,1,9.8,42.4c.7,6.2.9,12.4,1.4,18.7.2,2.2.1,4.5.1,6.7a1.4,1.4,0,0,1-1.4,1.6H1242.9Zm49.2-3.2h2.9c3.5,0,3.5-.1,3.6-3.4,0-1,0-1.9,0-2.9,0-14.7-.5-29.4-2-44.1a226,226,0,0,0-6.8-38.7c-3.4-12.2-8.2-23.9-15.5-34.3-11.4-16.3-27-26.1-46.4-29.8a123.7,123.7,0,0,0-54.7,1.9q-32.7,8.4-48.4,38.4a115,115,0,0,0-7.8,19c-4.8,15.2-7.1,30.8-8.5,46.6-1.2,14-1.9,28.1-2,42.2,0,5.4-.6,5.1,5.2,5.1H1292Z" transform="translate(1049.3 -153.9)"/></svg>